control3min_grf.mot
version=1
nRows=12
nColumns 19
inDegrees=yes
endheader
time	1_ground_force_vx	1_ground_force_vy	1_ground_force_vz	1_ground_force_px	1_ground_force_py	1_ground_force_pz	1_ground_torque_x	1_ground_torque_y	1_ground_torque_z	2_ground_force_vx	2_ground_force_vy	2_ground_force_vz	2_ground_force_px	2_ground_force_py	2_ground_force_pz	2_ground_torque_x	2_ground_torque_y	2_ground_torque_z
            2.502500	            3.217749	          958.508098	          -88.116937	           -0.204725	            0.006305	           -0.423312	            0.001713	            0.510275	           -0.046910	           18.027144	          986.799013	           91.502872	           -0.225268	            0.005803	           -0.734739	            0.002003	            0.109636	            0.010166
            2.503000	            2.714665	          957.604995	          -87.706850	           -0.204722	            0.006305	           -0.423276	            0.001396	            0.492420	           -0.045101	           17.283966	          984.956618	           90.980403	           -0.225020	            0.005803	           -0.734728	            0.000720	            0.041029	            0.003790
            2.503500	            2.441485	          954.177639	          -87.216436	           -0.204644	            0.006307	           -0.423641	            0.000973	            0.380445	           -0.034774	           16.445881	          983.481285	           90.740873	           -0.224969	            0.005803	           -0.734675	            0.000528	            0.031559	            0.002912
            2.504000	            1.710487	          953.632603	          -86.253964	           -0.204539	            0.006306	           -0.423439	            0.000377	            0.209972	           -0.018992	           15.420480	          982.004483	           90.689119	           -0.224762	            0.005804	           -0.734719	           -0.000282	           -0.017981	           -0.001661
            2.504500	            1.254046	          951.466573	          -85.620111	           -0.204510	            0.006306	           -0.423576	            0.000062	            0.047262	           -0.004253	           14.445171	          979.607877	           90.446363	           -0.224433	            0.005805	           -0.734651	           -0.000682	           -0.046275	           -0.004273
            2.505000	            0.844328	          948.217841	          -84.715882	           -0.204391	            0.006306	           -0.423557	            0.000217	            0.243313	           -0.021738	           12.761049	          978.866731	           90.022091	           -0.224455	            0.005805	           -0.734613	            0.000513	            0.039340	            0.003618
            2.505500	            0.571145	          946.052043	          -84.128352	           -0.204156	            0.006307	           -0.423658	            0.000279	            0.461875	           -0.041073	           11.646413	          976.102052	           89.543432	           -0.224282	            0.005806	           -0.734582	            0.001024	            0.085788	            0.007870
            2.506000	           -0.021962	          943.524019	          -83.174724	           -0.204046	            0.006307	           -0.423747	           -0.000015	            0.657464	           -0.057958	           10.668238	          974.443682	           88.834023	           -0.224001	            0.005806	           -0.734548	            0.001374	            0.125511	            0.011442
            2.506500	           -0.066664	          942.260608	          -82.813173	           -0.203964	            0.006307	           -0.423638	           -0.000050	            0.708841	           -0.062298	            9.791903	          970.574624	           88.492100	           -0.223864	            0.005807	           -0.734445	            0.000421	            0.041776	            0.003809
            2.507000	           -1.026707	          938.291174	          -82.048228	           -0.203868	            0.006308	           -0.423816	           -0.000503	            0.459428	           -0.040174	            8.767770	          968.730043	           88.298255	           -0.223636	            0.005807	           -0.734392	            0.000603	            0.066607	            0.006071
            2.507500	           -1.573354	          936.122571	          -80.818040	           -0.203763	            0.006307	           -0.423768	           -0.000461	            0.274166	           -0.023669	            7.750988	          964.859519	           88.191039	           -0.223482	            0.005807	           -0.734209	            0.000376	            0.046751	            0.004273
            2.508000	           -2.167061	          932.514390	          -80.190029	           -0.203660	            0.006308	           -0.423969	           -0.000534	            0.229867	           -0.019767	            6.774307	          962.831529	           87.855740	           -0.223286	            0.005808	           -0.734273	            0.000187	            0.026630	            0.002430
